<?xml version="1.0" encoding="UTF-8"?>
<svg id="Layer_2" data-name="Layer 2" xmlns="http://www.w3.org/2000/svg" viewBox="0 0 43.02 63.61">
  <defs>
    <style>
      .cls-1 {
        fill: #473729;
      }

      .cls-2 {
        fill: #a99477;
      }
    </style>
  </defs>
  <g id="Layer_1-2" data-name="Layer 1">
    <g>
      <path class="cls-1" d="M22.52,0C27.57,0,34.88,3.98,38.07,7.83c10.11,12.2,3.93,30.73-11.32,34.41-.7-7.8-3.85-15.08-10.03-20.03-2.21-1.77-4.79-2.72-7.06-4.27C4.01,14.11.43,7.92,0,1.09-.03.55.42,0,.97,0,10.52,0,14.6,0,22.52,0Z"/>
      <path class="cls-2" d="M22.17,62.6c0,.54-.43,1.01-.98,1-7.32-.02-14.39-4.69-17.82-11.06-.81-1.49-2.54-5.93-2.54-7.47v-23.18c0-.55.44-1.01.99-1,7.23.08,14.17,4.51,17.65,10.77.68,1.22,2.7,5.77,2.7,6.88v24.06Z"/>
    </g>
  </g>
</svg>